<svg xmlns="http://www.w3.org/2000/svg" width="138" height="106" viewBox="0 0 138 106">
  <path d="m 44,93 c 25,-10 56.4,-15.5 80.7,-17.5 m -111.6,10.1 22.5,-22.5 c 3.9,-3.9 10.2,-3.9 14.14,0 l 20.8,20.8 m -18.7,-19.6 29.2,-29.2 c 3.9,-3.9 10.2,-3.9 14.1,0 l 29.5,29.5 m -79.7,-29.6 a 8,8 0 0 1 -8,8 8,8 0 0 1 -8,-8 8,8 0 0 1 8,-8 8,8 0 0 1 8,8 z m -31.5,-22 h 111 c 0.3,0 0.5,0.2 0.5,0.5 v 79 c 0,0.3 -0.2,0.5 -0.5,0.5 h -111 c -0.3,0 -0.5,-0.2 -0.5,-0.5 v -79 c 0,-0.3 0.2,-0.5 0.5,-0.5 z m -12,-12 h 135 c 0.3,0 0.5,0.2 0.5,0.5 v 103 c 0,0.3 -0.2,0.5 -0.5,0.5 h -135 c -0.3,0 -0.5,-0.2 -0.5,-0.5 v -103 c 0,-0.3 0.2,-0.5 0.5,-0.5 z" style="opacity:1;fill:none;stroke:#333333;stroke-width:2;stroke-linecap:round;stroke-linejoin:round;paint-order:normal" />
</svg>
