<svg xmlns="http://www.w3.org/2000/svg" width="20" height="20" viewBox="0 0 30 30">
  <path d="m 23.665899,9.3906418 -3.057333,-3.0573332 1.724,-1.724 3.057333,3.0573333 z m -19.0839989,16.0266662 0.7786666,-3.113333 2.3346664,2.334666 z m 15.0839989,-18.1413328 3.057333,3.0573328 -13.723999,13.724 -3.057333,-3.057333 z m 3.138667,-4.08 c -0.261334,-0.2613333 -0.682667,-0.2613333 -0.944,0 l -17.3333326,17.3333327 c -0.0944,0.0944 -0.147344,0.2 -0.1746667,0.309334 l -1.3333333,5.333332 c -0.1168133,0.467232 0.316648,0.930838 0.808,0.808 l 5.333333,-1.333333 c 0.148104,-0.03703 0.2175533,-0.08156 0.3106666,-0.174666 l 17.333333,-17.3333332 c 0.26,-0.2613333 0.26,-0.6826666 0,-0.9426666 z" />
</svg>
