<svg xmlns="http://www.w3.org/2000/svg" width="3334" height="3334" viewBox="0 0 3334 3334">
  <path d="m 2117,501 c -260,0 -363,159 -362,309 l 0,577 c 3,132.8 53,194 130,257 63,52 144,100 220,162 20,16 31,36 31,58 v 588.5 c 0,35 0,47.5 -19,47.5 -19,0 -19,-13 -19,-47.5 v -630.5 h -343 v 656 c 0,170 27,356 358,356 331,0 370,-185 370,-356 v -642 c 0,-142 -50,-205 -130,-270 -63,-52 -148,-102 -224,-164 -20,-16 -31,-34 -31,-56 v -486.5 c 0,-35 0,-47.5 19,-47.5 19,0 19,13 19,47.5 v 527.5 h 347 v -593 c 1,-150 -87,-293 -366,-293 z m -1687,22 194,1651 v 637 h 375 v -630 l 197,-1658 h -336 c -28,319 -32,779 -42,1202 -10,-423 -17,-883 -45,-1202 z m 783,0 v 2288 h 505 v -382 h -155 v -575 h 155 v -375 h -155 v -578 h 155 v -378 z m 1313,0 v 1101 c 2,190 22,450 48,631 29,-15 100,-20 135,-20 35,0 106,5 135,20 26,-181 46,-441 48,-631 v -1101 z m 184,1751 c -149.5,0 -193,44 -193,276 0,232 43.5,276 193,276 149.5,0 194,-44 194,-276 0,-232 -44.5,-276 -194,-276 z" />
</svg>
