<svg xmlns="http://www.w3.org/2000/svg" width="192" height="350" viewBox="0 0 192 350">
  <path d="m 128.70523,349.98075 c -12.61022,-0.5562 -19.83405,-4.5118 -23.2667,-12.7401 -0.90562,-2.1707 -1.44449,-4.2501 -1.95283,-7.5352 -0.19419,-1.2549 -0.21047,-6.1041 -0.24421,-72.7558 l -0.0361,-71.41125 h 13.1439 13.14391 l 0.0322,68.60005 c 0.0298,63.4872 0.0473,68.6499 0.23406,69.2684 0.2634,0.872 0.55612,1.1039 1.39345,1.1039 0.80213,0 1.09288,-0.2422 1.19973,-0.9995 0.041,-0.2906 0.0587,-31.1095 0.0392,-68.4867 l -0.0354,-67.95832 -0.33961,-0.96454 c -0.18679,-0.53051 -0.52711,-1.24822 -0.75626,-1.59493 -1.08917,-1.64791 -3.55286,-3.65332 -9.24924,-7.52872 -8.0036,-5.44509 -10.78623,-7.56844 -13.33563,-10.17615 -2.93935,-3.00653 -4.37302,-5.90196 -5.1872,-10.47582 -0.19242,-1.08097 -0.20968,-5.74425 -0.25009,-67.53053 -0.0311,-47.42911 -0.006,-66.75309 0.0897,-67.71391 0.95023,-9.5989 6.28937,-16.35526 15.26155,-19.31251 3.77562,-1.24446 7.51005,-1.77345 12.48885,-1.76908 4.98046,0.004 8.84082,0.56173 12.67817,1.83046 8.56552,2.83202 13.83684,8.75494 14.89491,16.73614 0.14551,1.09752 0.17174,11.04246 0.17377,65.85926 l 0.003,64.56654 h -13.20487 -13.20487 l -0.0308,-62.32692 -0.0308,-62.32694 -0.25653,-0.34509 c -0.30211,-0.4064 -0.92406,-0.55075 -1.52811,-0.35468 -0.60252,0.19559 -0.81908,0.75228 -0.96237,2.47402 -0.0779,0.93618 -0.10838,22.75826 -0.0864,61.82711 l 0.0341,60.38027 0.26658,0.70073 c 0.34616,0.9099 0.81195,1.56947 1.7618,2.49471 1.61097,1.56924 3.7806,3.08519 14.18476,9.91129 4.48852,2.94487 7.5245,5.34969 9.11327,7.21872 2.5286,2.97461 3.463,5.59539 3.8221,10.72025 0.16675,2.37948 0.16371,145.77784 -0.003,147.77274 -0.47319,5.6584 -1.7673,9.8992 -4.10231,13.4435 -1.06203,1.6121 -3.31924,3.8895 -4.89962,4.9435 -3.57905,2.387 -8.03963,3.7733 -13.75383,4.2747 -1.59501,0.1398 -5.78979,0.2444 -7.24158,0.1804 z m 45.18341,-0.546 c -2.55713,-0.1737 -4.38838,-0.6119 -5.99373,-1.434 -1.26205,-0.6463 -2.6408,-2.0813 -3.36838,-3.5058 -1.37938,-2.7007 -1.92836,-5.7553 -2.18737,-12.1715 -0.16094,-3.9864 -0.0168,-9.7731 0.31795,-12.7637 0.85537,-7.6425 2.97916,-10.5467 8.40218,-11.4903 1.79952,-0.3131 5.51864,-0.4495 8.40337,-0.3081 3.67421,0.1801 5.07408,0.4524 6.93173,1.348 3.3485,1.6144 4.76266,4.6972 5.43907,11.8568 0.25059,2.6524 0.20898,13.1168 -0.0617,15.5229 -0.82153,7.3023 -2.78159,10.648 -7.08179,12.0884 -2.49449,0.8355 -6.47419,1.1514 -10.8013,0.8573 z m -159.77062,-108.1283 c -4.5198627,-79.76273 -9.672245,-159.4899 -14.11802,-239.25688 9.0807388,-0.4367 13.764816,-0.21873 26.410434,-0.21873 l -0.0019,0.58058 c 2.045856,67.14489 2.71528,121.92774 3.29938,188.74942 0.0043,1.04199 0.03085,1.8394 0.05908,1.77203 1.292341,-63.77835 0.896337,-129.00367 3.453268,-191.07147 9.117731,-0.0464 16.066551,-0.0305 25.888459,-0.0305 l -0.04643,0.64169 c -4.996914,84.48774 -8.789868,148.85967 -14.152516,239.76606 0,35.2873 0,70.5747 0,105.862 -10.263961,0 -20.527921,0 -30.791883,0 -7e-6,-35.5982 9.6e-5,-71.196 9.6e-5,-106.7942 z m 47.465752,-66.34072 v -173.13489 h 19.108016 19.108016 c 0,9.49298 0,18.98596 0,28.47895 -3.77292,0 -7.545839,0 -11.318758,0 0,42.61657 0,85.23313 0,127.84969 3.772919,0 7.545838,0 11.318758,0 0,9.45225 0,18.90448 0,28.35673 -3.77292,0 -7.545839,0 -11.318758,0 0,44.24624 0,88.49244 0,132.73884 3.772919,0 7.545838,0 11.318758,0 0,9.6152 0,19.2304 0,28.8456 -12.738678,0 -25.477355,0 -38.216032,0 z m 104.916628,130.88532 c -1.2854,-7.3962 -2.85859,-23.424 -3.41118,-34.7536 -0.34063,-6.9839 -0.36339,-15.7295 -0.3651,-140.34743 l -0.001,-128.91918 h 14.42382 14.42381 l -0.0394,132.70824 c -0.0295,99.28227 -0.0752,133.32387 -0.18146,135.15277 -0.0782,1.3445 -0.19959,3.4346 -0.26984,4.6447 -0.58721,10.1149 -1.9028,23.0612 -3.1424,30.9235 -0.24619,1.5614 -0.0385,1.466 -2.02941,0.9322 -1.97226,-0.5289 -4.08002,-0.7584 -7.66755,-0.8349 -4.37385,-0.093 -7.81854,0.2127 -10.13953,0.9005 -0.58164,0.1724 -1.14693,0.3393 -1.25619,0.371 -0.16107,0.047 -0.22616,-0.1004 -0.34389,-0.7778 z" />
</svg>
