<?xml version="1.0" encoding="UTF-8"?>
<svg id="Layer_1" xmlns="http://www.w3.org/2000/svg" version="1.1" viewBox="0 0 800 800">
  <!-- Generator: Adobe Illustrator 30.2.1, SVG Export Plug-In . SVG Version: 2.1.1 Build 1)  -->
  <defs>
    <style>
      .st0 {
        fill: #231f20;
      }

      .st1 {
        fill: #333;
      }
    </style>
  </defs>
  <rect class="st1" x="-9" y="-9" width="818" height="818"/>
  <g>
    <path class="st0" d="M464.31,314.03c30.88,0,43.97,12.04,43.97,33.24,0,35.07-42.66,35.85-42.66,64.12,0,3.4,1.31,5.5,1.31,7.85,0,1.83-1.05,2.88-2.62,2.88s-2.62-1.05-2.62-2.88c0-2.36,1.31-4.45,1.31-7.85,0-28.26-42.66-29.05-42.66-64.12,0-21.2,13.09-33.24,43.97-33.24ZM504.61,455.35c0,19.1-13.87,30.62-40.3,30.62-28.79,0-40.3-11.51-40.3-30.62,0-18.06,15.96-28.79,40.3-28.79s40.3,10.73,40.3,28.79Z"/>
    <g>
      <path class="st0" d="M66.23,448.11l-39.72-66.95v-65.08h55.95v26.48c0,10.63,3.54,18.83,9.14,22.38h1.86c5.41-3.54,8.58-11.56,8.58-22.38v-26.48h55.95v65.08l-35.81,66.02v36.74h-55.95v-35.81Z"/>
      <path class="st0" d="M162.45,316.08h120.28v59.86h-64.34v7.09h61.54v34.13h-61.54v7.09h65.64v59.68h-121.59v-167.84Z"/>
      <path class="st0" d="M288.13,419.21h55.95c0,4.29,1.86,7.27,8.39,7.27s8.39-2.98,8.39-7.46c0-5.59-3.73-7.65-10.07-7.65h-62.66v-95.29h128.68v65.46h-55.95v-1.12c0-2.8-1.49-5.97-8.2-5.97s-8.58,2.42-8.58,7.27c0,5.22,4.47,7.65,12.49,7.65h60.24v94.55h-128.68v-64.71Z"/>
    </g>
    <g>
      <path class="st0" d="M511.81,389.37h60.24c8.02,0,12.49-2.61,12.49-8.39,0-5.22-1.86-8.02-8.2-8.02s-8.58,3.17-8.58,7.46v1.12h-55.94v-65.46h128.68v95.29h-72.73v7.83h72.73v64.71h-128.68v-94.55Z"/>
      <path class="st0" d="M645.27,367.55l43.82-51.47h65.83c-15.11,16.97-27.97,30.02-35.81,41.96h56.88v125.88h-130.73v-116.37ZM710.92,431.89c8.58,0,13.8-3.54,13.8-11.56v-.75c0-7.65-5.22-11.56-13.24-11.56-9.14,0-14.73,3.54-14.73,11.75,0,8.95,4.47,12.12,14.17,12.12Z"/>
    </g>
  </g>
</svg>