<?xml version="1.0" encoding="UTF-8"?>
<svg id="Layer_1" xmlns="http://www.w3.org/2000/svg" version="1.1" viewBox="0 0 453.92 103.3">
  <!-- Generator: Adobe Illustrator 30.2.1, SVG Export Plug-In . SVG Version: 2.1.1 Build 1)  -->
  <defs>
    <style>
      .st0 {
        fill: #000;
      }

      .st1 {
        fill: none;
      }

      .st2 {
        fill: #ec008c;
      }
    </style>
  </defs>
  <path class="st2" d="M258.96,72.86c0-19.46,1.5-33.54-15.75-33.54V0h45.18v39.32c-17.82,0-15.46,16.36-15.46,33.54h-13.97ZM253.16,76.56h26.16v26.74h-26.16v-26.74Z"/>
  <path class="st0" d="M24.45,81.26L0,40.06V0h34.43v16.3c0,6.54,2.18,11.59,5.62,13.77h1.15c3.33-2.18,5.28-7.12,5.28-13.77V0h34.43v40.06l-22.04,40.63v22.61H24.45v-22.04Z"/>
  <path class="st0" d="M83.67,0h74.03v36.84h-39.6v4.36h37.88v21h-37.88v4.36h40.4v36.73h-74.83V0Z"/>
  <path class="st0" d="M161.02,63.47h34.43c0,2.64,1.15,4.48,5.16,4.48s5.17-1.84,5.17-4.59c0-3.44-2.29-4.71-6.2-4.71h-38.57V0h79.2v40.29h-34.43v-.69c0-1.72-.92-3.67-5.05-3.67s-5.28,1.49-5.28,4.48c0,3.21,2.75,4.71,7.69,4.71h37.07v58.19h-79.2v-39.83Z"/>
  <path class="st0" d="M291.31,45.11h37.07c4.94,0,7.69-1.61,7.69-5.16,0-3.21-1.15-4.94-5.05-4.94s-5.28,1.95-5.28,4.59v.69h-34.43V0h79.2v58.65h-44.76v4.82h44.76v39.83h-79.2v-58.19Z"/>
  <path class="st0" d="M373.46,31.68L400.43,0h40.52c-9.3,10.44-17.22,18.48-22.04,25.82h35.01v77.47h-80.46V31.68ZM413.86,71.28c5.28,0,8.49-2.18,8.49-7.12v-.46c0-4.71-3.21-7.12-8.15-7.12-5.62,0-9.07,2.18-9.07,7.23,0,5.51,2.75,7.46,8.72,7.46Z"/>
  <line class="st1" x2="488.87"/>
  <line class="st1" y1="103.3" x2="488.87" y2="103.3"/>
  <line class="st1" y1="103.3" x2="488.87" y2="103.3"/>
</svg>