<?xml version="1.0" encoding="UTF-8"?>
<svg id="Layer_1" data-name="Layer 1" xmlns="http://www.w3.org/2000/svg" viewBox="0 0 461.29 105.82">
  <defs>
    <style>
      .cls-1 {
        fill: #ec008c;
      }
    </style>
  </defs>
  <path class="cls-1" d="M269.45,0c19.01,0,27.06,7.41,27.06,20.46,0,21.58-26.25,22.07-26.25,39.46,0,2.09.81,3.38.81,4.83,0,1.13-.64,1.77-1.61,1.77s-1.61-.64-1.61-1.77c0-1.45.81-2.74.81-4.83,0-17.4-26.25-17.88-26.25-39.46,0-13.05,8.05-20.46,27.06-20.46ZM294.26,86.98c0,11.76-8.54,18.85-24.81,18.85-17.72,0-24.8-7.09-24.8-18.85,0-11.11,9.83-17.72,24.8-17.72s24.81,6.6,24.81,17.72Z"/>
  <g>
    <path d="M24.45,82.52L0,41.32V1.26h34.43v16.3c0,6.54,2.18,11.59,5.62,13.77h1.15c3.33-2.18,5.28-7.12,5.28-13.77V1.26h34.43v40.06l-22.04,40.63v22.61H24.45v-22.04Z"/>
    <path d="M83.67,1.26h74.03v36.84h-39.6v4.36h37.88v21h-37.88v4.36h40.4v36.73h-74.83V1.26Z"/>
    <path d="M161.02,64.73h34.43c0,2.64,1.15,4.48,5.16,4.48s5.17-1.84,5.17-4.59c0-3.44-2.29-4.71-6.2-4.71h-38.57V1.26h79.2v40.29h-34.43v-.69c0-1.72-.92-3.67-5.05-3.67s-5.28,1.49-5.28,4.48c0,3.21,2.75,4.71,7.69,4.71h37.07v58.19h-79.2v-39.83Z"/>
  </g>
  <g>
    <path d="M298.69,46.37h37.07c4.94,0,7.69-1.61,7.69-5.16,0-3.21-1.15-4.94-5.05-4.94s-5.28,1.95-5.28,4.59v.69h-34.43V1.26h79.2v58.65h-44.76v4.82h44.76v39.83h-79.2v-58.19Z"/>
    <path d="M380.83,32.94l26.97-31.68h40.52c-9.3,10.44-17.22,18.48-22.04,25.82h35.01v77.47h-80.46V32.94ZM421.23,72.54c5.28,0,8.49-2.18,8.49-7.12v-.46c0-4.71-3.21-7.12-8.15-7.12-5.62,0-9.07,2.18-9.07,7.23,0,5.51,2.75,7.46,8.72,7.46Z"/>
  </g>
</svg>