<svg width="200" height="17" viewBox="0 0 200 17" fill="none" xmlns="http://www.w3.org/2000/svg">
<g clip-path="url(#clip0_793_3624)">
<mask id="mask0_793_3624" style="mask-type:luminance" maskUnits="userSpaceOnUse" x="-3" y="-6" width="205" height="29">
<path d="M201.78 -5.27979H-2.21973V22.7202H201.78V-5.27979Z" fill="white"/>
</mask>
<g mask="url(#mask0_793_3624)">
<mask id="mask1_793_3624" style="mask-type:luminance" maskUnits="userSpaceOnUse" x="-3" y="-6" width="205" height="29">
<path d="M201.78 -5.27979H-2.21973V22.7202H201.78V-5.27979Z" fill="white"/>
</mask>
<g mask="url(#mask1_793_3624)">
<path d="M0 11.0677H3.25111C3.25111 13.1022 4.83556 13.8899 6.62889 13.8899C7.80778 13.8899 9.60334 13.5466 9.60334 11.9855C9.60334 10.34 7.31222 10.0622 5.07111 9.46328C2.80444 8.86328 0.515557 7.98884 0.515557 5.12106C0.515557 2.00328 3.46556 0.504395 6.22778 0.504395C9.41334 0.504395 12.3389 1.89328 12.3389 5.42106H9.09C8.98445 3.58106 7.67889 3.11217 6.07445 3.11217C5.00445 3.11217 3.76555 3.55662 3.76555 4.84439C3.76555 6.01884 4.49222 6.17217 8.32111 7.1555C9.43222 7.43439 12.8578 8.13884 12.8578 11.5999C12.8578 14.4044 10.6522 16.4977 6.50556 16.4977C3.12445 16.4977 -0.0388878 14.8311 0.0011122 11.0655" fill="#FFFFFF"/>
<path d="M14.1826 8.5655C14.1826 4.03217 16.9604 0.504395 21.6882 0.504395C25.0471 0.504395 27.8715 2.46995 28.2748 5.99995H25.0226C24.8093 4.48106 23.356 3.32551 21.6893 3.32551C18.6737 3.32551 17.5404 5.89439 17.5404 8.5655C17.5404 11.1099 18.6737 13.6766 21.6893 13.6766C23.7415 13.6766 24.8971 12.2633 25.1537 10.2522H28.406C28.0626 14.0611 25.4315 16.4977 21.6893 16.4977C16.9615 16.4977 14.1837 12.9677 14.1837 8.56328" fill="#FFFFFF"/>
<path d="M40.2292 0.863281H43.5903V16.1366H40.2292V9.54773H34.0503V16.1366H30.6914V0.863281H34.0503V6.72439H40.2292V0.863281Z" fill="#FFFFFF"/>
<path d="M79.8203 0.863281H83.1792V13.3155H90.6214V16.1366H79.8203V0.863281Z" fill="#FFFFFF"/>
<path d="M139.752 6.96217H147.153V9.56995H139.752V13.3155H147.983V16.1366H136.391V0.863281H147.813V3.68884H139.752V6.96217Z" fill="#FFFFFF"/>
<path d="M118.595 3.68884H111.218V7.21995H117.61V9.82773H111.218V16.1366H107.861V0.863281H118.595V3.68884Z" fill="#FFFFFF"/>
<path d="M190.438 0.863281L196.816 11.1099H196.855V0.863281H200V16.1366H196.639L190.29 5.91661H190.244V16.1366H187.102V0.863281H190.438Z" fill="#FFFFFF"/>
<path d="M184.154 5.89444H180.943C180.559 4.20444 179.296 3.32555 177.715 3.32555C174.697 3.32555 173.566 5.89444 173.566 8.56555C173.566 11.11 174.697 13.6767 177.715 13.6767C179.897 13.6767 181.159 12.4967 181.349 10.3811H177.973V7.87889H184.383V16.1367H182.247L181.904 14.4067C180.73 15.9233 179.19 16.5 177.715 16.5C172.987 16.5 170.207 12.97 170.207 8.56555C170.207 4.03222 172.985 0.5 177.715 0.5C180.835 0.5 183.788 2.42778 184.154 5.89444Z" fill="#FFFFFF"/>
<path d="M167.916 0.863281H164.56V16.1366H167.916V0.863281Z" fill="#FFFFFF"/>
<path d="M161.628 5.41907H158.377C158.273 3.5813 156.967 3.11241 155.362 3.11241C154.294 3.11241 153.055 3.55685 153.055 4.84463C153.055 6.01908 153.779 6.17241 157.61 7.15241C158.722 7.43463 162.143 8.13908 162.143 11.5969C162.143 14.4013 159.942 16.4946 155.79 16.4946C152.413 16.4946 149.248 14.828 149.29 11.0602H152.546C152.546 13.0935 154.128 13.8846 155.925 13.8846C157.102 13.8846 158.9 13.5413 158.9 11.9802C158.9 10.3346 156.609 10.0546 154.364 9.45574C152.096 8.85908 149.808 7.98352 149.808 5.11574C149.808 1.99797 152.758 0.494629 155.52 0.494629C158.708 0.494629 161.632 1.88796 161.632 5.41352" fill="#FFFFFF"/>
<path d="M90.5576 8.5655C90.5576 12.9699 93.3354 16.5 98.0632 16.5C102.791 16.5 105.57 12.9699 105.57 8.5655C105.57 4.03217 102.792 0.504395 98.0632 0.504395C93.3343 0.504395 90.5576 4.03217 90.5576 8.5655ZM102.215 8.5655C102.215 11.1099 101.081 13.6766 98.0632 13.6766C95.0454 13.6766 93.9165 11.1077 93.9165 8.5655C93.9165 5.89884 95.0476 3.32551 98.0632 3.32551C101.079 3.32551 102.212 5.89439 102.212 8.5655" fill="#FFFFFF"/>
<path d="M45.8789 8.5655C45.8789 12.9699 48.6567 16.5 53.3878 16.5C58.1189 16.5 60.8945 12.9699 60.8945 8.5655C60.8945 4.03217 58.1167 0.504395 53.3878 0.504395C48.6589 0.504395 45.8789 4.03217 45.8789 8.5655ZM57.5378 8.5655C57.5378 11.1099 56.4011 13.6766 53.3878 13.6766C50.3745 13.6766 49.2367 11.1077 49.2367 8.5655C49.2367 5.89884 50.3722 3.32551 53.3878 3.32551C56.4034 3.32551 57.5378 5.89439 57.5378 8.5655Z" fill="#FFFFFF"/>
<path d="M62.5186 8.5655C62.5186 12.9699 65.2963 16.5 70.0241 16.5C74.7519 16.5 77.533 12.9699 77.533 8.5655C77.533 4.03217 74.7552 0.504395 70.0241 0.504395C65.293 0.504395 62.5186 4.03217 62.5186 8.5655ZM74.1741 8.5655C74.1741 11.1099 73.0374 13.6766 70.0241 13.6766C67.0108 13.6766 65.873 11.1077 65.873 8.5655C65.873 5.89884 67.0086 3.32551 70.0241 3.32551C73.0397 3.32551 74.1741 5.89439 74.1741 8.5655Z" fill="#FFFFFF"/>
<path d="M120.546 16.1369H127.131C131.798 16.1369 134.064 12.8424 134.064 8.41688C134.064 3.35022 131.089 0.861328 127.131 0.861328H120.546V16.1369ZM126.3 3.69244C129.634 3.69244 130.705 5.66244 130.705 8.7391C130.705 12.1191 128.847 13.3191 126.899 13.3191H123.899V3.68466L126.3 3.69244Z" fill="#FFFFFF"/>
</g>
</g>
</g>
<defs>
<clipPath id="clip0_793_3624">
<rect width="200" height="16" fill="white" transform="translate(0 0.5)"/>
</clipPath>
</defs>
</svg>
